<svg xmlns="http://www.w3.org/2000/svg" width="24" height="24" viewBox="0 0 24 24">
    <g fill="none" fill-rule="evenodd">
        <g fill="#FFF">
            <g>
                <g>
                    <path d="M19.61 0c.483 0 .889.331 1.002.779l.023.131h.055c.89 0 1.722.348 2.338.967l.163.176.14.173c.582.771.794 1.733.597 2.668l-.057.233-1.812 6.341c-.352 1.234-1.081 2.296-2.105 3.068-.144.109-.294.21-.449.306l-.13.076-1.918 4.53.001.419c0 2.127-1.615 3.884-3.683 4.109l-.223.018-.227.006c-2.203 0-4.009-1.732-4.127-3.907l-.006-.226v-4.682c0-1.211-.986-2.198-2.198-2.198-1.154 0-2.104.895-2.192 2.027l-.006.171-.001 1.343.129.038c1.386.45 2.402 1.675 2.576 3.133l.02.233.006.214c0 2.075-1.688 3.763-3.763 3.763S0 22.221 0 20.146c0-1.576.98-2.955 2.397-3.507l.206-.073.127-.038v-1.343c0-2.2 1.674-4.015 3.815-4.24l.223-.017.226-.006c2.275 0 4.14 1.79 4.258 4.037l.006.226v4.682c0 1.14.927 2.067 2.067 2.067 1.083 0 1.974-.837 2.06-1.898l.008-.17v-.422l-1.919-4.527-.129-.075-.115-.072-.113-.076-.22-.158c-.939-.708-1.63-1.66-2.01-2.763l-.095-.305-1.812-6.34c-.287-1.007-.09-2.066.54-2.902.585-.776 1.458-1.245 2.418-1.309l.277-.007c.053-.43.364-.775.77-.878l.125-.024.13-.008c.526 0 .96.394 1.025.903l.008.13v1.82c0 .57-.463 1.033-1.033 1.033-.483 0-.888-.331-1.001-.779l-.024-.132h-.054c-.296 0-.572.102-.792.285l-.105.098-.095.112c-.208.276-.29.613-.235.947l.032.143 1.812 6.34c.462 1.62 1.963 2.752 3.647 2.752 1.611 0 3.054-1.036 3.582-2.543l.066-.208 1.812-6.341c.108-.38.034-.775-.203-1.09-.208-.276-.51-.447-.846-.486l-.146-.008-.055-.001c-.063.517-.498.91-1.024.91-.527 0-.961-.393-1.025-.902l-.008-.13v-1.82c0-.57.462-1.033 1.033-1.033zM3.764 18.448c-.936 0-1.697.762-1.697 1.698 0 .936.761 1.697 1.697 1.697s1.698-.761 1.698-1.697-.762-1.698-1.698-1.698zm13.506-3.04c-.305.051-.616.078-.93.078-.316 0-.627-.027-.932-.078l.931 2.197z" transform="translate(-1308 -44) translate(0 16) translate(1308 28)"/>
                </g>
            </g>
        </g>
    </g>
</svg>
